<?xml version="1.0" encoding="UTF-8" standalone="no"?>
<!-- Created with Inkscape (http://www.inkscape.org/) -->
<svg
   xmlns:dc="http://purl.org/dc/elements/1.1/"
   xmlns:cc="http://web.resource.org/cc/"
   xmlns:rdf="http://www.w3.org/1999/02/22-rdf-syntax-ns#"
   xmlns:svg="http://www.w3.org/2000/svg"
   xmlns="http://www.w3.org/2000/svg"
   xmlns:xlink="http://www.w3.org/1999/xlink"
   xmlns:sodipodi="http://sodipodi.sourceforge.net/DTD/sodipodi-0.dtd"
   xmlns:inkscape="http://www.inkscape.org/namespaces/inkscape"
   width="210mm"
   height="297mm"
   id="svg2"
   sodipodi:version="0.32"
   inkscape:version="0.45.1"
   sodipodi:docbase="/Users/fedak/shared/events/SC_07"
   sodipodi:docname="BITDEW.svg"
   inkscape:output_extension="org.inkscape.output.svg.inkscape"
   inkscape:export-filename="/Users/fedak/shared/events/SC_07/bitdew-banner.png"
   inkscape:export-xdpi="64.795677"
   inkscape:export-ydpi="64.795677">
  <defs
     id="defs4">
    <linearGradient
       id="linearGradient8114">
      <stop
         style="stop-color:#b4edf7;stop-opacity:1;"
         offset="0"
         id="stop8116" />
      <stop
         style="stop-color:#ebfaff;stop-opacity:1;"
         offset="1"
         id="stop8118" />
    </linearGradient>
    <linearGradient
       id="linearGradient8104">
      <stop
         style="stop-color:#0090ea;stop-opacity:1;"
         offset="0"
         id="stop8106" />
      <stop
         style="stop-color:#56e3f0;stop-opacity:1;"
         offset="1"
         id="stop8108" />
    </linearGradient>
    <linearGradient
       id="linearGradient6071">
      <stop
         style="stop-color:#24ffff;stop-opacity:1;"
         offset="0"
         id="stop6073" />
      <stop
         style="stop-color:#34ff4e;stop-opacity:1;"
         offset="1"
         id="stop6075" />
    </linearGradient>
    <linearGradient
       inkscape:collect="always"
       xlink:href="#linearGradient8104"
       id="linearGradient9126"
       gradientUnits="userSpaceOnUse"
       gradientTransform="matrix(0.476338,0,0,0.6476034,158.68552,-13.406995)"
       x1="42.725025"
       y1="689.25739"
       x2="123.08795"
       y2="653.78021" />
    <linearGradient
       inkscape:collect="always"
       xlink:href="#linearGradient8114"
       id="linearGradient9128"
       gradientUnits="userSpaceOnUse"
       gradientTransform="matrix(0.4121841,0,0,0.4095079,-55.936921,134.98978)"
       x1="114.24485"
       y1="792.30975"
       x2="153.64079"
       y2="792.30975" />
    <linearGradient
       inkscape:collect="always"
       xlink:href="#linearGradient8104"
       id="linearGradient9132"
       gradientUnits="userSpaceOnUse"
       gradientTransform="matrix(0.4801417,3.4146179e-2,-0.1268247,0.7208791,716.80502,64.872965)"
       x1="42.725025"
       y1="689.25739"
       x2="126.26907"
       y2="656.8645" />
    <linearGradient
       inkscape:collect="always"
       xlink:href="#linearGradient8104"
       id="linearGradient10111"
       x1="357.09399"
       y1="480.79498"
       x2="403.87564"
       y2="480.79498"
       gradientUnits="userSpaceOnUse"
       gradientTransform="matrix(1.00004,0,0,0.8788067,-1.5408701e-2,70.654889)" />
    <linearGradient
       inkscape:collect="always"
       xlink:href="#linearGradient8114"
       id="linearGradient10115"
       gradientUnits="userSpaceOnUse"
       gradientTransform="matrix(0.3402027,0,0,0.3839884,113.38881,311.95704)"
       x1="114.24485"
       y1="792.30975"
       x2="153.64079"
       y2="792.30975" />
    <linearGradient
       inkscape:collect="always"
       xlink:href="#linearGradient8114"
       id="linearGradient11089"
       gradientUnits="userSpaceOnUse"
       gradientTransform="matrix(0.4324687,0,0,0.4491307,324.4799,386.93865)"
       x1="114.24485"
       y1="792.30975"
       x2="153.64079"
       y2="792.30975" />
    <linearGradient
       inkscape:collect="always"
       xlink:href="#linearGradient8114"
       id="linearGradient12080"
       gradientUnits="userSpaceOnUse"
       gradientTransform="matrix(0.4713785,0,0,0.4511733,194.60021,220.92168)"
       x1="114.24485"
       y1="792.30975"
       x2="153.64079"
       y2="792.30975" />
    <linearGradient
       inkscape:collect="always"
       xlink:href="#linearGradient8104"
       id="linearGradient12083"
       gradientUnits="userSpaceOnUse"
       gradientTransform="matrix(0.6953772,0,0,0.5612379,152.03733,199.13435)"
       x1="390.67255"
       y1="402.89789"
       x2="577.97278"
       y2="402.89789" />
    <linearGradient
       inkscape:collect="always"
       xlink:href="#linearGradient8104"
       id="linearGradient13058"
       gradientUnits="userSpaceOnUse"
       gradientTransform="matrix(0.3338368,0.2586289,-0.270934,0.2390741,261.57279,235.62862)"
       x1="390.67255"
       y1="402.89789"
       x2="577.97278"
       y2="402.89789" />
    <linearGradient
       inkscape:collect="always"
       xlink:href="#linearGradient8114"
       id="linearGradient13060"
       gradientUnits="userSpaceOnUse"
       gradientTransform="matrix(0.2834709,0,0,0.2926303,453.76901,110.17461)"
       x1="114.24485"
       y1="792.30975"
       x2="153.64079"
       y2="792.30975" />
    <linearGradient
       inkscape:collect="always"
       xlink:href="#linearGradient8104"
       id="linearGradient15016"
       x1="112.51936"
       y1="437.24469"
       x2="130.85927"
       y2="435.99637"
       gradientUnits="userSpaceOnUse"
       gradientTransform="matrix(1.00004,0,0,0.8788067,-1.5408701e-2,70.654889)" />
    <linearGradient
       inkscape:collect="always"
       xlink:href="#linearGradient8114"
       id="linearGradient15020"
       gradientUnits="userSpaceOnUse"
       gradientTransform="matrix(0.1854811,0,0,0.1963021,-97.283548,318.45788)"
       x1="114.24485"
       y1="792.30975"
       x2="153.64079"
       y2="792.30975" />
    <linearGradient
       inkscape:collect="always"
       xlink:href="#linearGradient8104"
       id="linearGradient15999"
       x1="109.6749"
       y1="513.44452"
       x2="131.21429"
       y2="513.44452"
       gradientUnits="userSpaceOnUse"
       gradientTransform="matrix(1.00004,0,0,0.8788067,-1.5408701e-2,70.654889)" />
    <linearGradient
       inkscape:collect="always"
       xlink:href="#linearGradient8114"
       id="linearGradient16003"
       gradientUnits="userSpaceOnUse"
       gradientTransform="matrix(0.1600458,0,0,0.1619638,-141.47523,412.5672)"
       x1="114.24485"
       y1="792.30975"
       x2="153.64079"
       y2="792.30975" />
    <linearGradient
       inkscape:collect="always"
       xlink:href="#linearGradient8104"
       id="linearGradient16009"
       gradientUnits="userSpaceOnUse"
       gradientTransform="matrix(0.3338368,0.2586289,-0.270934,0.2390741,597.78048,199.75825)"
       x1="390.67255"
       y1="402.89789"
       x2="577.97278"
       y2="402.89789" />
    <linearGradient
       inkscape:collect="always"
       xlink:href="#linearGradient8114"
       id="linearGradient16011"
       gradientUnits="userSpaceOnUse"
       gradientTransform="matrix(0.2834709,0,0,0.2926303,741.52601,-36.631937)"
       x1="114.24485"
       y1="792.30975"
       x2="153.64079"
       y2="792.30975" />
    <linearGradient
       inkscape:collect="always"
       xlink:href="#linearGradient8104"
       id="linearGradient16994"
       gradientUnits="userSpaceOnUse"
       x1="42.725025"
       y1="689.25739"
       x2="126.26907"
       y2="656.8645"
       gradientTransform="matrix(0.3588823,0,0,0.3028199,212.76783,346.85544)" />
    <linearGradient
       inkscape:collect="always"
       xlink:href="#linearGradient8114"
       id="linearGradient17002"
       gradientUnits="userSpaceOnUse"
       gradientTransform="matrix(0.2813993,0,0,0.3497048,380.70958,127.59964)"
       x1="114.24485"
       y1="792.30975"
       x2="153.64079"
       y2="792.30975" />
  </defs>
  <sodipodi:namedview
     id="base"
     pagecolor="#ffffff"
     bordercolor="#666666"
     borderopacity="1.0"
     inkscape:pageopacity="0.0"
     inkscape:pageshadow="2"
     inkscape:zoom="0.98994949"
     inkscape:cx="405.12817"
     inkscape:cy="618.8707"
     inkscape:document-units="px"
     inkscape:current-layer="layer1"
     inkscape:window-width="952"
     inkscape:window-height="783"
     inkscape:window-x="202"
     inkscape:window-y="84" />
  <metadata
     id="metadata7">
    <rdf:RDF>
      <cc:Work
         rdf:about="">
        <dc:format>image/svg+xml</dc:format>
        <dc:type
           rdf:resource="http://purl.org/dc/dcmitype/StillImage" />
      </cc:Work>
    </rdf:RDF>
  </metadata>
  <g
     inkscape:label="Calque 1"
     inkscape:groupmode="layer"
     id="layer1">
    <path
       style="fill:url(#linearGradient9132);fill-opacity:1;fill-rule:evenodd"
       d="M 692.05135,554.49365 C 688.93975,572.18016 675.47754,583.9339 662.76041,583.02948 C 650.04327,582.1251 630.34685,565.93572 643.95323,541.24229 C 656.99527,517.57308 633.31362,520.85426 646.24951,517.81171 C 652.96964,516.23114 695.3316,522.07301 692.05135,554.49365 z "
       id="path9130"
       sodipodi:nodetypes="csssc"
       inkscape:transform-center-y="30.612135"
       inkscape:transform-center-x="-25.528763" />
    <path
       style="font-size:56px;font-style:normal;font-variant:normal;font-weight:normal;font-stretch:normal;text-align:start;line-height:125%;writing-mode:lr-tb;text-anchor:start;fill:#000000;fill-opacity:1;stroke:none;stroke-width:1px;stroke-linecap:butt;stroke-linejoin:miter;stroke-opacity:1;font-family:Comic Sans MS"
       d="M 111.17453,394.56285 C 96.758282,393.51216 74.268295,399.52448 76.326345,422.25186 C 77.137654,469.03134 67.087428,517.71403 75.876084,563.41158 C 89.019232,585.93695 114.78694,573.37465 132.96593,570.9039 C 147.69425,565.82149 162.71433,556.29664 170.78569,539.95734 C 168.67914,558.66941 183.85217,580.58998 199.69079,569.27515 C 215.48661,560.02905 209.46998,537.78859 209.3258,521.49801 C 208.29681,498.99059 217.3795,470.97978 204.55331,451.89539 C 199.36064,448.08232 213.30428,444.41532 213.01775,437.01933 C 216.28255,441.51312 224.65186,448.99645 232.2878,448.09495 C 240.39377,451.6558 256.16088,443.7621 252.41262,461.11451 C 255.97041,494.42338 252.68391,529.55693 258.31141,561.89141 C 268.69491,582.68329 298.20656,568.46977 294.46823,544.62697 C 294.83935,512.70594 291.91315,480.91457 290.54822,449.0722 C 301.78626,449.51381 313.07283,454.45822 324.40589,450.48378 C 326.54392,486.7566 320.09978,524.39707 325.57652,559.8283 C 338.42951,578.53237 362.03171,581.89684 380.95544,580.78509 C 402.68102,579.39913 423.81505,560.5255 433.09265,539.95734 C 447.57929,587.40285 512.73373,587.62535 530.70366,544.30074 C 536.91727,522.38549 508.79414,503.22436 498.19667,524.42979 C 493.02933,530.2498 485.54523,531.90159 478.74649,530.61911 C 498.02391,522.25596 526.05679,507.79767 522.68945,477.30413 C 516.11588,441.52672 473.54823,435.29144 452.27267,455.58726 C 445.60102,461.43873 440.52958,469.56237 436.69454,478.2814 C 426.84658,440.99033 397.45809,419.3076 368.70905,406.7243 C 356.48467,397.88386 337.61455,388.91191 328.27793,407.05004 C 301.49349,398.00154 272.61354,405.93285 245.00409,401.46092 C 233.44272,399.1597 217.05444,398.83554 211.93717,412.15351 C 201.695,393.95118 173.54381,400.75394 174.20746,424.96647 C 172.71142,434.53799 179.39766,444.80346 183.84251,448.74645 C 166.54341,457.74493 174.82018,487.71932 171.14586,501.40989 C 168.75035,492.55491 154.43876,489.49895 163.04165,479.91016 C 176.88041,447.8479 160.05039,405.88439 131.16499,397.7118 C 124.77222,394.98946 117.94322,394.02123 111.17453,394.56285 z M 537.27708,398.90622 C 516.93508,400.65687 517.81675,432.3779 526.56148,447.87776 C 539.81262,486.83438 541.4896,530.15501 554.5661,568.62364 C 567.19042,587.60787 597.64435,571.80606 592.65599,547.23251 C 595.15524,535.65645 599.77465,524.32697 603.64173,513.02842 C 607.56276,535.35529 606.67666,566.2724 624.89284,579.04772 C 641.75616,586.98946 656.32659,567.1057 658.1627,548.54365 C 671.02847,504.87421 691.43883,463.04581 697.29064,417.14838 C 694.29852,391.40412 659.89021,394.83223 657.39982,419.21149 C 651.86146,442.89448 645.14814,466.16822 637.85961,489.13982 C 632.33942,462.17327 636.29544,428.61501 620.75067,405.96419 C 604.76689,392.76569 587.07445,413.7371 584.28163,432.67596 C 580.01097,445.99517 576.76122,459.72534 573.29588,473.3951 C 567.61022,448.69529 565.56459,418.07663 548.53298,400.96933 C 545.01409,398.96265 541.12105,398.47056 537.27708,398.90622 z M 114.86647,441.3627 C 124.93377,440.41524 135.7782,457.10323 123.78112,464.59977 C 118.39108,469.64961 110.26869,470.79651 113.69584,459.17055 C 113.84157,453.31078 113.31452,446.8694 114.86647,441.3627 z M 364.11666,456.56452 C 383.86925,465.12369 409.31682,488.14151 398.78475,516.7203 C 392.78558,533.17658 375.17415,537.28392 362.49578,532.57362 C 363.82414,507.88159 362.50684,478.59218 364.11666,456.56452 z M 111.35463,515.52588 C 117.23824,517.03836 127.36977,517.90185 130.71475,521.71518 C 122.28782,525.45723 106.46119,534.57904 111.35463,515.52588 z "
       id="path2169"
       sodipodi:nodetypes="cccccccccccccccccccccccccccccccccccccccccccccccccccccccccccc" />
    <path
       style="font-size:56px;font-style:normal;font-variant:normal;font-weight:normal;font-stretch:normal;text-align:start;line-height:125%;writing-mode:lr-tb;text-anchor:start;fill:#00f11c;fill-opacity:1;fill-rule:nonzero;stroke:none;stroke-width:1px;stroke-linecap:butt;stroke-linejoin:miter;stroke-opacity:1;font-family:Comic Sans MS"
       d="M 137.86392,553.09459 C 126.0452,558.66859 110.94357,561.45555 92.559025,561.45559 C 90.300283,561.45555 88.14668,560.15711 86.098147,557.5601 C 84.102047,555.02649 83.104048,552.39786 83.104082,549.67417 L 83.104082,522.02587 C 83.104048,512.96815 83.576797,500.04666 84.522295,483.26126 C 85.572852,465.14585 86.150626,452.03428 86.25573,443.92658 C 86.203161,438.09933 86.492058,429.42161 87.122436,417.89345 C 87.49008,414.72655 88.356775,412.63631 89.722543,411.6227 C 96.866221,408.96255 104.9817,407.63238 114.06899,407.63221 C 123.31374,407.63238 132.19088,411.43286 140.70041,419.03357 C 150.52291,427.77477 155.43425,438.57439 155.43435,451.43244 C 155.43425,467.71113 150.18149,480.53769 139.67612,489.91204 C 147.55517,493.96593 153.43821,498.46314 157.32533,503.40363 C 161.2648,508.34428 163.23457,513.72826 163.23468,519.55557 C 163.23457,527.21986 159.79401,534.63074 152.91304,541.78823 C 148.13295,546.85553 143.11658,550.62428 137.86392,553.09459 M 114.06899,427.01453 C 108.34347,427.0147 104.32512,427.23637 102.01395,427.67964 L 101.85635,444.30659 L 100.28054,481.07597 C 107.73942,481.83613 111.7315,482.18453 112.2568,482.1211 C 120.18837,481.36111 126.67549,478.3841 131.71821,473.19004 C 137.12847,467.5528 139.83359,460.30028 139.83372,451.43244 C 139.83359,445.41517 137.07594,439.84118 131.56062,434.71045 C 126.0452,429.57998 120.21466,427.0147 114.06899,427.01453 M 122.8936,503.1186 L 114.54174,501.50343 C 113.85882,501.5035 112.80827,501.5668 111.3901,501.69347 C 110.02432,501.75682 108.97379,501.78853 108.23844,501.78845 C 105.40192,501.78853 102.3816,501.5035 99.177452,500.93336 C 98.862253,508.91438 98.70467,516.04018 98.704704,522.3109 L 98.704704,541.97827 C 112.46685,541.4082 123.68144,539.06459 132.34854,534.94743 C 136.02537,533.23725 139.54474,530.5769 142.90654,526.96645 C 146.11063,523.67276 147.71273,521.20249 147.71283,519.55557 C 147.71273,516.57859 144.35096,513.22155 137.62752,509.48436 C 132.58485,506.6341 127.67352,504.51218 122.8936,503.1186 M 193.64806,436.61071 C 191.12674,436.61079 188.94685,435.53403 187.1084,433.38029 C 185.26991,431.22686 184.35067,428.62985 184.35067,425.58935 C 184.35067,422.54914 185.26991,419.95217 187.1084,417.79845 C 188.94685,415.64498 191.12674,414.5682 193.64806,414.56807 C 196.16935,414.5682 198.32295,415.64498 200.10892,417.79845 C 201.94735,419.95217 202.86656,422.54914 202.86662,425.58935 C 202.86656,428.62985 201.94735,431.22686 200.10892,433.38029 C 198.32295,435.53403 196.16935,436.61079 193.64806,436.61071 M 197.19367,513.75988 C 197.19363,517.56037 197.27239,523.26106 197.43005,530.86193 C 197.6401,538.39948 197.74515,544.06851 197.74518,547.86896 C 197.74515,550.65594 197.03605,552.93623 195.61785,554.70978 C 194.19954,556.48334 192.33483,557.37009 190.02365,557.37009 C 187.76494,557.37009 185.90023,556.48334 184.42948,554.70978 C 183.01123,552.93623 182.30211,550.65594 182.30214,547.86896 C 182.30211,544.06851 182.19704,538.39948 181.98697,530.86193 C 181.82936,523.26106 181.75058,517.56037 181.75058,513.75988 C 181.75058,507.80592 182.0132,500.39503 182.53849,491.52726 C 183.06373,482.59624 183.3264,475.1537 183.32643,469.19956 C 183.3264,466.34934 184.0355,464.03737 185.45379,462.26375 C 186.92452,460.49029 188.78924,459.60351 191.04793,459.60344 C 193.30661,459.60351 195.14507,460.49029 196.56332,462.26375 C 198.03404,464.03737 198.76942,466.34934 198.76949,469.19956 C 198.76942,475.1537 198.50681,482.59624 197.98156,491.52726 C 197.45626,500.39503 197.19363,507.80592 197.19367,513.75988 M 319.08355,436.89572 C 315.19641,436.89584 309.20831,436.51579 301.11917,435.75557 C 293.23998,435.05896 287.25187,434.74225 283.15478,434.80548 L 277.56062,434.80548 C 277.71816,443.54661 278.42727,457.73496 279.68798,477.37056 C 280.8435,495.67611 281.42133,509.89616 281.42136,520.03062 C 281.42133,522.24759 281.60516,525.60469 281.9729,530.10184 C 282.34054,534.59908 282.52438,537.98778 282.52448,540.26807 C 282.52438,544.57525 281.94659,548.28067 280.79104,551.38439 C 279.32022,555.56486 277.03533,557.65516 273.93624,557.65516 C 271.83506,557.65516 269.94408,556.76837 268.26326,554.99481 C 266.58235,553.22129 265.7419,550.94102 265.74196,548.15398 C 265.7419,547.20389 265.87319,545.77871 266.13591,543.87847 C 266.3985,541.97827 266.5298,540.55312 266.52989,539.60295 C 266.5298,536.49928 266.34594,531.84375 265.9783,525.63631 C 265.66312,519.42892 265.50552,514.74172 265.50557,511.57466 C 265.50552,502.51694 264.90147,489.78543 263.69338,473.38007 C 262.43266,455.64472 261.72356,442.91321 261.56603,435.18552 L 254.39604,435.28054 C 242.89251,435.28065 233.85779,434.26718 227.29187,432.24019 C 223.03711,430.91014 220.90978,427.77477 220.90978,422.83403 C 220.90978,420.23722 221.59264,417.95693 222.95835,415.99321 C 224.53416,413.77642 226.55644,412.76299 229.02527,412.95284 C 230.86369,413.07967 235.06594,413.64977 241.63185,414.66306 C 246.88459,415.42328 251.13931,415.80337 254.39604,415.80321 C 257.5476,415.80337 262.3276,415.74001 268.73602,415.61319 C 275.14429,415.42328 279.92428,415.3283 283.07599,415.32814 C 287.12054,415.3283 293.10868,415.67667 301.0404,416.37327 C 309.02448,417.07016 315.03887,417.41853 319.08355,417.4184 C 321.34213,417.41853 323.23311,418.36865 324.75652,420.26873 C 326.27969,422.10576 327.04138,424.41769 327.04147,427.20458 C 327.04138,429.92837 326.27969,432.24029 324.75652,434.1404 C 323.23311,435.97739 321.34213,436.89584 319.08355,436.89572 M 404.02043,556.22996 C 395.87857,562.94409 384.19124,566.30113 368.95837,566.30116 C 365.12382,566.30113 360.73775,565.57275 355.80022,564.1159 C 349.8646,562.40568 345.39977,560.18876 342.40574,557.4651 L 341.61782,557.4651 C 339.35914,557.4651 337.46816,556.51498 335.94488,554.61477 C 334.42154,552.71453 333.65991,550.40261 333.65991,547.67892 C 333.65991,541.02814 333.89628,531.08365 334.36903,517.84536 C 334.89428,504.54383 335.15694,494.56764 335.15694,487.91678 C 335.15694,480.50598 335.02561,469.45303 334.76297,454.75783 C 334.55287,439.99953 334.44782,428.9149 334.44785,421.50389 C 334.44782,418.90706 335.55092,416.18339 337.75707,413.33291 C 339.96321,410.48273 342.16935,409.05753 344.37551,409.05739 C 345.63614,409.05753 349.83833,411.17947 356.98211,415.42315 C 365.07128,420.17388 369.7462,422.8025 371.00693,423.30909 C 385.92468,429.4533 398.63627,438.89107 409.14183,451.62247 C 421.48568,466.63435 427.65765,483.13464 427.65776,501.12336 C 427.65765,511.9547 425.53029,522.34262 421.27566,532.28708 C 417.07338,542.23162 411.32162,550.21258 404.02043,556.22996 M 387.47425,455.70796 C 382.11645,451.46425 369.7462,444.18004 350.36364,433.85536 L 350.7576,461.21863 L 350.99399,488.48689 L 349.73332,540.36304 C 350.10099,540.55312 350.65253,540.9648 351.38791,541.5982 C 356.01031,545.33535 361.84084,547.20389 368.87957,547.20386 C 380.85575,547.20389 389.5753,544.98698 395.03823,540.55308 C 400.13331,536.37261 404.17791,530.76694 407.17205,523.73611 C 410.21854,516.64193 411.74185,509.26274 411.74197,501.59842 C 411.74185,483.73638 403.65266,468.43957 387.47425,455.70796 M 481.07817,561.26555 C 469.20691,561.26555 459.59442,557.6868 452.24059,550.52927 C 444.20391,542.61168 440.18555,531.52701 440.18555,517.27531 C 440.18555,500.80671 443.49477,486.99844 450.11322,475.85037 C 457.30947,463.68901 466.92197,457.60832 478.95083,457.60819 C 487.6703,457.60832 494.78778,459.38182 500.30321,462.92885 C 507.07915,467.29944 510.46719,474.01354 510.46727,483.07121 C 510.46719,489.4054 507.49938,495.1694 501.56384,500.36329 C 498.93741,502.64363 493.36953,506.19069 484.86015,511.00455 L 454.76188,528.20159 C 457.70344,533.45892 461.35409,537.41771 465.7139,540.07802 C 470.12613,542.73834 475.24754,544.06851 481.07817,544.06851 C 484.70248,544.06851 488.95722,543.24505 493.84231,541.5982 C 500.04049,539.50796 504.03259,536.78433 505.81857,533.42725 C 507.60446,530.00684 509.52168,528.29667 511.57035,528.29663 C 513.4087,528.29667 515.03706,529.15175 516.45539,530.86193 C 517.92609,532.50879 518.66148,534.44072 518.66155,536.65763 C 518.66148,543.68847 513.96026,549.73751 504.55791,554.80477 C 496.52118,559.11198 488.69458,561.26555 481.07817,561.26555 M 478.95083,474.71021 C 472.54239,474.71034 467.21089,477.71901 462.95616,483.73632 C 458.70145,489.69042 455.52354,498.68483 453.42246,510.71951 L 477.61136,496.84789 C 487.11876,491.27395 493.89479,486.42838 497.93947,482.31114 C 493.42203,477.24395 487.09249,474.71034 478.95083,474.71021 M 632.12082,566.01616 C 629.70443,566.0161 627.57707,565.19265 625.73869,563.54584 C 623.63753,561.64558 622.58696,559.30197 622.58704,556.51498 C 620.17073,548.85074 618.64744,542.61168 618.01716,537.79776 C 617.38676,532.98385 615.3119,519.3339 611.79268,496.84789 C 609.11369,479.80923 607.32776,466.12763 606.43488,455.80298 C 601.75985,476.70555 596.74351,494.4093 591.38576,508.91431 C 585.18748,525.69966 581.16909,538.84289 579.33072,548.34402 C 579.961,549.80086 580.27616,551.22604 580.27622,552.61952 C 580.27616,555.46985 579.22561,557.81348 577.12456,559.65034 C 575.23353,561.36056 573.0799,562.21566 570.66371,562.21568 C 563.57245,562.21566 560.02687,558.38354 560.0269,550.71929 L 557.58436,538.65288 L 548.99613,492.09732 C 545.58181,476.38884 539.75129,453.87121 531.5045,424.54425 C 531.13681,423.1509 530.95294,421.88408 530.95294,420.74377 C 530.95294,414.85325 533.71065,411.90787 539.22602,411.90775 C 542.64028,411.90787 545.26666,414.15649 547.10514,418.65356 C 548.05061,420.93396 549.96787,427.48976 552.85689,438.32091 C 555.95598,449.78572 559.0551,463.59399 562.15425,479.74582 L 569.797,521.74086 C 575.41737,506.03236 581.01157,486.90344 586.57951,464.35399 C 589.99371,450.60911 592.59383,441.07635 594.37984,435.75557 C 599.10723,421.75738 603.70338,414.75824 608.16829,414.75811 C 611.84513,414.75824 614.44522,417.00681 615.96862,421.50389 C 617.85948,426.95134 619.77675,439.93619 621.72035,460.45854 C 622.7708,470.84654 624.55674,483.32466 627.07816,497.89302 L 633.8542,535.23245 C 640.89273,514.83673 649.6911,487.25181 660.24922,452.47756 C 660.8269,450.57745 662.14011,444.59178 664.18879,434.52046 C 665.71194,427.10967 667.57664,421.34568 669.78295,417.22838 C 671.67382,413.74477 674.14261,412.0029 677.18932,412.00276 C 682.49445,412.0029 685.14708,415.16996 685.14724,421.50389 C 685.14708,422.58083 684.30665,425.74784 682.62592,431.00503 L 679.47427,441.26623 L 675.14076,458.17825 L 651.7398,526.77645 C 649.58602,534.31402 645.88284,545.272 640.63024,559.65034 C 638.73913,563.89421 635.90267,566.0161 632.12082,566.01616"
       id="text2164"
       sodipodi:nodetypes="cssccccccscsccsccccccccsscccsscccccscccsssscsccccssssscssssssssccccccssscssssscsccccssscscssssssccscccsscscssscccsccccccccsccscccscsssccccsscscscccccccccscsccscscsccccssscccccsccccscssscccccc" />
    <path
       style="fill:url(#linearGradient9126);fill-opacity:1;fill-rule:evenodd"
       d="M 218.83231,422.57139 C 218.83231,438.46008 207.66787,449.73806 195.05149,449.73806 C 182.43509,449.73806 160.34542,436.61684 169.42058,413.84903 C 178.1193,392.02557 155.48119,396.43108 167.63154,392.91534 C 173.94359,391.08893 216.45766,393.59918 218.83231,422.57139 z "
       id="path9122"
       sodipodi:nodetypes="csssc" />
    <rect
       style="fill:url(#linearGradient9128);fill-opacity:1;fill-rule:evenodd"
       id="rect9124"
       width="16.238392"
       height="11.996295"
       x="-8.8469887"
       y="453.44882"
       ry="5.3776484"
       transform="matrix(0.9605793,-0.278006,0.4344538,0.9006941,0,0)"
       rx="2.4354992" />
    <path
       style="fill:url(#linearGradient10111);fill-opacity:1;fill-rule:evenodd;stroke:#000000;stroke-width:0.93746567px;stroke-linecap:butt;stroke-linejoin:miter;stroke-opacity:1"
       d="M 357.59291,450.41231 C 367.2698,481.64775 346.53737,532.08504 361.5724,533.7065 L 369.71523,537.40973 C 381.62502,541.47487 396.12511,538.46286 399.89846,524.67692 L 402.75572,513.6657 C 405.23118,501.77546 409.59631,487.99283 380.82735,463.72825 L 357.59291,450.41231 z "
       id="path9134"
       sodipodi:nodetypes="ccccccc" />
    <rect
       style="fill:url(#linearGradient10115);fill-opacity:1;fill-rule:evenodd"
       id="rect10113"
       width="13.402612"
       height="11.248714"
       x="152.25525"
       y="610.57043"
       ry="5.0425262"
       transform="matrix(0.9457638,-0.324855,0.3765161,0.9264101,0,0)"
       rx="2.0101776" />
    <rect
       style="fill:url(#linearGradient11089);fill-opacity:1;fill-rule:evenodd"
       id="rect11087"
       width="17.037512"
       height="13.157021"
       x="373.88721"
       y="736.21088"
       ry="5.897974"
       transform="matrix(0.9558803,-0.2937564,0.4135866,0.9104648,0,0)"
       rx="2.5553551" />
    <path
       style="fill:url(#linearGradient12083);fill-opacity:1;fill-rule:evenodd;stroke:#000000;stroke-width:0;stroke-linecap:butt;stroke-linejoin:miter;stroke-miterlimit:4;stroke-dasharray:none;stroke-opacity:1"
       d="M 524.06497,429.98231 C 538.07554,450.65647 516.77022,468.68353 497.42607,459.10493 C 484.608,450.54505 485.66661,423.52669 486.34013,398.98292 C 484.87523,409.94221 516.40327,417.86401 524.06497,429.98231 z "
       id="path11099"
       sodipodi:nodetypes="cccc" />
    <rect
       style="fill:url(#linearGradient12080);fill-opacity:1;fill-rule:evenodd"
       id="rect12078"
       width="18.570408"
       height="13.216858"
       x="248.45282"
       y="571.78229"
       ry="5.9247975"
       transform="matrix(0.9642077,-0.2651481,0.4526663,0.89168,0,0)"
       rx="2.7852647" />
    <path
       style="fill:url(#linearGradient13058);fill-opacity:1;fill-rule:evenodd;stroke:#000000;stroke-width:0;stroke-linecap:butt;stroke-linejoin:miter;stroke-miterlimit:4;stroke-dasharray:none;stroke-opacity:1"
       d="M 328.73542,472.33117 C 325.4813,486.34877 306.55057,486.10388 301.88784,474.82902 C 299.86638,466.41534 313.41754,455.29987 325.58923,445.09531 C 319.59544,449.21888 330.90722,464.31948 328.73542,472.33117 z "
       id="path13054"
       sodipodi:nodetypes="cccc" />
    <rect
       style="fill:url(#linearGradient13060);fill-opacity:1;fill-rule:evenodd"
       id="rect13056"
       width="11.167605"
       height="8.5724335"
       x="486.15411"
       y="337.74222"
       ry="3.8428144"
       transform="matrix(0.9429253,0.3330042,-0.4419036,0.8970626,0,0)"
       rx="1.6749624" />
    <path
       style="fill:url(#linearGradient15016);fill-opacity:1;fill-rule:evenodd;stroke:none;stroke-width:1px;stroke-linecap:butt;stroke-linejoin:miter;stroke-opacity:1"
       d="M 114.27488,439.94643 C 110.40412,441.48615 112.62606,459.5497 112.13194,468.50765 C 117.12423,468.45166 123.27357,470.38019 129.9898,457.83643 C 130.10884,450.8269 123.08476,439.52795 114.27488,439.94643 z "
       id="path13062"
       sodipodi:nodetypes="cccc" />
    <rect
       style="fill:url(#linearGradient15020);fill-opacity:1;fill-rule:evenodd"
       id="rect15018"
       width="7.3072052"
       height="5.7505555"
       x="-76.093285"
       y="471.11465"
       ry="2.5778348"
       transform="matrix(0.9537388,-0.3006363,0.4049351,0.9143454,0,0)"
       rx="1.095964" />
    <path
       style="fill:url(#linearGradient15999);fill-opacity:1;fill-rule:evenodd;stroke:#000000;stroke-width:0.93746567px;stroke-linecap:butt;stroke-linejoin:miter;stroke-opacity:1"
       d="M 111.77479,514.645 C 109.25322,518.20208 109.53433,523.01458 111.77478,526.57166 C 118.80892,530.30401 124.54146,524.88582 130.70412,522.49149 C 127.61703,518.93078 120.56712,515.69891 111.77479,514.645 z "
       id="path15022"
       sodipodi:nodetypes="cccc" />
    <rect
       style="fill:url(#linearGradient16003);fill-opacity:1;fill-rule:evenodd"
       id="rect16001"
       width="6.3051558"
       height="4.7446327"
       x="-123.19083"
       y="538.52032"
       ry="2.126904"
       transform="matrix(0.9586788,-0.2844907,0.4256776,0.9048749,0,0)"
       rx="0.94567251" />
    <path
       style="fill:url(#linearGradient16009);fill-opacity:1;fill-rule:evenodd;stroke:#000000;stroke-width:0;stroke-linecap:butt;stroke-linejoin:miter;stroke-miterlimit:4;stroke-dasharray:none;stroke-opacity:1"
       d="M 664.94312,436.4608 C 661.689,450.4784 642.75827,450.2335 638.09554,438.95865 C 636.07408,430.54496 649.62525,419.4295 661.79693,409.22494 C 655.80314,413.3485 667.11493,428.44911 664.94312,436.4608 z "
       id="path16005"
       sodipodi:nodetypes="cccc" />
    <rect
       style="fill:url(#linearGradient16011);fill-opacity:1;fill-rule:evenodd"
       id="rect16007"
       width="11.167604"
       height="8.5724335"
       x="773.91113"
       y="190.93565"
       ry="3.8428144"
       transform="matrix(0.9429253,0.3330042,-0.4419036,0.8970626,0,0)"
       rx="1.6749623" />
    <path
       style="fill:url(#linearGradient16994);fill-opacity:1;fill-rule:evenodd"
       d="M 257.66722,557.95927 C 257.66722,565.38884 251.20168,569.43009 241.69626,569.43009 C 232.19083,569.43009 217.01438,559.92752 223.85177,549.28128 C 230.40558,539.07659 249.58111,536.24231 254.15562,529.6447 C 256.75231,525.89963 255.87816,544.41183 257.66722,557.95927 z "
       id="path16992"
       sodipodi:nodetypes="csssc" />
    <rect
       style="fill:url(#linearGradient17002);fill-opacity:1;fill-rule:evenodd"
       id="rect17000"
       width="11.085989"
       height="10.244396"
       x="412.85797"
       y="399.55188"
       ry="4.5923152"
       transform="matrix(0.908445,0.4180043,-0.3536559,0.9353756,0,0)"
       rx="1.6627215" />
    <path
       style="font-size:56px;font-style:normal;font-variant:normal;font-weight:normal;font-stretch:normal;text-align:start;line-height:125%;writing-mode:lr-tb;text-anchor:start;fill:#64ff64;fill-opacity:1;fill-rule:nonzero;stroke:none;stroke-width:1px;stroke-linecap:butt;stroke-linejoin:miter;stroke-opacity:1;font-family:Comic Sans MS"
       d="M 386.94661,454.49508 C 403.12502,467.2267 411.55461,483.77866 411.55473,501.6407 C 411.55464,507.09995 410.75659,512.39912 409.21089,517.56907 C 415.18752,514.96387 421.13871,512.30233 427.05535,509.60489 C 427.34923,506.81959 427.49284,504.02039 427.49287,501.17384 C 427.49276,483.18512 420.94758,465.415 408.60372,450.40314 C 395.63643,447.72887 387.85613,450.65826 386.94661,454.49508 z M 86.104202,441.3326 C 86.098973,442.21641 86.065901,443.18769 86.072951,443.96902 C 85.967846,452.07672 85.404689,465.1802 84.354132,483.29561 C 83.734909,494.28866 83.317756,503.46431 83.104082,511.1428 C 88.280729,512.37557 93.437206,513.60945 98.604704,514.85027 C 98.678716,510.54189 98.814592,505.95382 99.01097,500.9816 C 102.21512,501.55174 105.23732,501.83302 108.07383,501.83294 C 108.80918,501.83302 109.83317,501.78644 111.19895,501.72309 C 112.61712,501.59643 113.67241,501.53094 114.35533,501.53085 L 122.69942,503.15115 C 127.47934,504.54473 132.40733,506.67223 137.45001,509.5225 C 144.17345,513.25969 147.54406,516.62432 147.54416,519.60131 C 147.54408,520.96788 146.40636,522.89556 144.20028,525.39595 C 149.84627,526.60743 155.54291,527.79267 161.29471,528.91117 C 162.45517,525.84921 163.04473,522.74874 163.04478,519.60131 C 163.04467,513.774 161.07776,508.39389 157.13829,503.45324 C 153.25117,498.51275 147.3604,493.99548 139.48134,489.94159 C 149.98671,480.56724 155.26313,467.74503 155.26322,451.46634 C 155.26321,449.93501 155.18379,448.43539 155.04446,446.96245 C 149.4516,446.16455 143.95171,445.55237 138.51255,445.04006 C 139.25635,447.13022 139.66879,449.25662 139.66884,451.46634 C 139.66871,460.33417 136.95379,467.60703 131.54352,473.24426 C 126.50081,478.43832 120.00557,481.40964 112.07399,482.16964 C 111.54869,482.23308 107.56364,481.88622 100.10476,481.12606 L 101.66732,444.35349 L 101.69857,442.45857 C 96.523099,442.1309 91.334531,441.78378 86.104202,441.3326 z M 536.7785,444.29857 C 542.18888,464.18516 546.20765,480.16476 548.81023,492.13861 L 551.96661,509.16549 C 557.27535,509.74859 562.51627,510.41006 567.68598,511.11534 L 561.96701,479.78039 C 559.70854,468.00995 557.44391,457.50709 555.18548,448.22574 C 548.92369,447.00752 542.77709,445.71504 536.7785,444.29857 z M 350.33353,451.42318 C 345.16724,449.91636 339.92161,450.86572 334.5829,453.85559 C 334.58784,454.20715 334.57783,454.43349 334.5829,454.78932 C 334.84554,469.48453 334.98918,480.55347 334.98917,487.96427 C 334.98917,494.61513 334.7019,504.59709 334.17663,517.89863 C 333.86811,526.53798 333.69003,533.62308 333.58286,539.45685 C 339.07027,538.90105 344.40297,538.12968 349.61475,537.14999 L 350.8023,488.54099 L 350.58354,461.27052 L 350.33353,451.42318 z M 589.12434,453.74574 C 588.28215,456.98379 587.38044,460.47627 586.40548,464.40127 C 581.95627,482.42003 577.48141,498.2062 572.9987,511.85683 C 578.47954,512.65447 583.88358,513.5121 589.2181,514.43833 C 589.85845,512.64732 590.52298,510.82843 591.21818,508.94578 C 596.57592,494.44078 601.57499,476.73547 606.25003,455.83291 C 607.14291,466.15756 608.94624,479.85098 611.62524,496.88966 C 613.09429,506.27611 614.15971,513.21188 615.12538,519.51893 C 620.66782,520.73237 626.1304,521.9993 631.53229,523.33624 L 626.90711,497.93324 C 624.38569,483.36488 622.58234,470.88957 621.53189,460.50157 C 621.42363,459.35844 621.32747,458.32986 621.21938,457.2335 C 610.23332,456.2829 599.53929,455.12653 589.12434,453.74574 z M 478.77617,457.64544 C 466.74731,457.64557 457.12752,463.71933 449.93127,475.88068 C 444.80203,484.52034 441.67877,494.77625 440.52464,506.61145 C 445.13006,506.34892 449.67573,506.12726 454.18144,505.95235 C 456.24855,496.30812 459.10961,488.92007 462.77553,483.78994 C 467.03026,477.77264 472.36774,474.75484 478.77617,474.75471 C 486.91783,474.75484 493.22823,477.29469 497.74568,482.36188 C 493.701,486.47913 486.93976,491.3157 477.43237,496.88966 L 462.08801,505.67772 C 473.03015,505.37104 483.67665,505.32684 494.05804,505.51295 C 497.40296,503.42523 499.8917,501.6891 501.37083,500.40488 C 507.30638,495.21099 510.27734,489.43757 510.27744,483.10338 C 510.27736,474.0457 506.89674,467.3438 500.12078,462.97321 C 494.60535,459.42618 487.49564,457.64557 478.77617,457.64544 z M 657.8771,459.5953 C 649.97,485.48501 643.08661,507.36581 637.25127,524.79177 C 641.90329,525.98889 646.50612,527.21966 651.06432,528.49923 C 651.22132,527.96751 651.42106,527.32545 651.56434,526.82401 L 674.284,460.19948 C 668.75561,460.04352 663.29355,459.83555 657.8771,459.5953 z M 190.85839,459.65022 C 188.5997,459.6503 186.73515,460.54064 185.26442,462.31411 C 183.84613,464.08773 183.13931,466.38448 183.13934,469.23471 C 183.13931,475.18884 182.88329,482.63088 182.35805,491.56189 C 181.83276,500.42966 181.57677,507.85273 181.57677,513.80668 C 181.57677,517.60717 181.63794,523.31508 181.79553,530.91595 C 181.81362,531.56493 181.81025,531.99737 181.82678,532.61864 C 186.93685,533.45982 192.12027,534.25202 197.35866,534.98043 C 197.32435,533.58893 197.30807,532.46537 197.2649,530.91595 C 197.10725,523.31508 197.01485,517.60718 197.01489,513.80668 C 197.01485,507.85272 197.27087,500.42966 197.79617,491.56189 C 198.32142,482.63088 198.57738,475.18884 198.57745,469.23471 C 198.57738,466.38448 197.86059,464.08772 196.38987,462.31411 C 194.97161,460.54065 193.11708,459.65029 190.85839,459.65022 z M 279.33069,474.28785 C 274.21437,475.00482 268.97486,475.34942 263.64256,475.30397 C 264.75413,490.75296 265.33008,502.92129 265.33013,511.60967 C 265.33008,514.77674 265.4837,519.46318 265.7989,525.67057 C 266.16653,531.87802 266.36133,536.54542 266.36142,539.64909 C 266.36141,539.80259 266.33703,540.04752 266.33017,540.22581 C 271.57548,540.29298 276.90802,540.28712 282.33081,540.19835 C 282.32554,537.91942 282.16191,534.57999 281.79954,530.14699 C 281.43179,525.64984 281.23699,522.28515 281.23701,520.06818 C 281.23698,509.93372 280.67372,495.72414 279.5182,477.41859 C 279.44619,476.29721 279.39909,475.3737 279.33069,474.28785 z "
       id="path18077"
       sodipodi:nodetypes="csccsccccccccsccccsccsccsccsccccccccccccccccsccccccccccscccccccccccccscccccsccccccccccscsccccscsccccscsccsscc" />
  </g>
</svg>
